<?xml version="1.0" standalone="no"?>
<!DOCTYPE svg PUBLIC "-//W3C//DTD SVG 1.1//EN" "http://www.w3.org/Graphics/SVG/1.1/DTD/svg11.dtd" >
<svg xmlns="http://www.w3.org/2000/svg">
<metadata></metadata>
<defs>
<font id="12_akzidenz_groteskbold" horiz-adv-x="1139" >
<font-face units-per-em="2048" ascent="1638" descent="-410" />
<missing-glyph horiz-adv-x="569" />
<glyph horiz-adv-x="0" />
<glyph unicode="&#xd;" horiz-adv-x="0" />
<glyph unicode=" "  horiz-adv-x="569" />
<glyph unicode="&#x09;" horiz-adv-x="569" />
<glyph unicode="&#xa0;" horiz-adv-x="569" />
<glyph unicode="!" horiz-adv-x="532" d="M129 0v283h274v-283h-274zM129 893v565h274v-565l-79 -518h-115z" />
<glyph unicode="&#x22;" horiz-adv-x="797" d="M141 889v569h193v-569h-193zM463 889v569h192v-569h-192z" />
<glyph unicode="#" d="M59 387v180h199l37 258h-172v181h199l55 387h194l-55 -387h197l55 387h195l-56 -387h172v-181h-198l-37 -258h172v-180h-199l-55 -387h-195l56 387h-197l-55 -387h-195l55 387h-172zM453 567h196l37 258h-197z" />
<glyph unicode="$" d="M51 211l213 160q33 -68 91 -110t132 -56v411q-149 57 -225 96.5t-129 115.5t-53 202q0 85 34 157t90.5 121.5t132 78.5t150.5 30v228h181v-228q52 -1 110 -19.5t109 -48t100 -75t76 -92.5l-189 -148q-38 64 -89.5 104.5t-116.5 49.5v-340q205 -64 312 -153t107 -275 q0 -136 -66.5 -236.5t-164 -153t-188.5 -55.5v-241h-181v241q-81 3 -163.5 32.5t-152 81.5t-120.5 122zM354 1044q0 -63 34 -93.5t99 -49.5v287q-65 -12 -99 -49t-34 -95zM668 205q59 19 102 69.5t43 116.5q0 64 -40.5 106t-104.5 60v-352z" />
<glyph unicode="%" horiz-adv-x="2048" d="M236 1047q0 109 37.5 192.5t112 130.5t181.5 47t181.5 -47t112.5 -130.5t38 -192.5t-38 -193t-112.5 -131t-181.5 -47t-181.5 47.5t-112 131t-37.5 192.5zM440 1047q0 -90 25 -153t102 -63t102 61.5t25 154.5t-25 154t-102 61t-102 -62t-25 -153zM508 -78l852 1548h178 l-852 -1548h-178zM1149 346q0 109 38 193t112.5 131t181.5 47t181.5 -47.5t112 -131t37.5 -192.5t-37.5 -192.5t-112 -131t-181.5 -47.5t-181.5 47t-112.5 131t-38 193zM1354 346q0 -90 25 -152.5t102 -62.5t102 62.5t25 152.5q0 91 -25 153t-102 62t-102 -62t-25 -153z" />
<glyph unicode="&#x26;" horiz-adv-x="1290" d="M59 397q0 91 43 175t112.5 147.5t154.5 105.5q-72 114 -72 215q0 99 48 177t130.5 120.5t181.5 42.5q149 0 238.5 -85.5t89.5 -221.5q0 -87 -34.5 -150.5t-93.5 -106t-144 -79.5l186 -284q32 37 59 113.5t27 115.5h229q0 -33 -18.5 -108t-58 -158t-99.5 -144 q45 -38 71 -52.5t60 -14.5q33 0 62 6v-199q-49 -12 -121 -12q-77 0 -132 18.5t-104 67.5q-84 -52 -171.5 -81.5t-184.5 -29.5q-129 0 -233.5 50.5t-165 145.5t-60.5 226zM309 408q0 -69 31 -117.5t82.5 -73t112.5 -24.5q56 0 108 21.5t92 59.5l-246 363q-49 -15 -91 -49.5 t-65.5 -81t-23.5 -98.5zM547 1075q0 -45 16 -78t49 -75q64 12 110 49.5t46 99.5q0 51 -31 84t-82 33q-52 0 -80 -34.5t-28 -78.5z" />
<glyph unicode="'" horiz-adv-x="569" d="M188 889v569h193v-569h-193z" />
<glyph unicode="(" horiz-adv-x="721" d="M100 614q0 185 59 345t172 296t281 265l66 -101q-157 -148 -230 -367.5t-73 -437.5q0 -216 73 -435t230 -369l-66 -101q-171 132 -282.5 267t-170.5 294t-59 344z" />
<glyph unicode=")" horiz-adv-x="721" d="M43 -190q106 101 174.5 239t98.5 281.5t30 283.5t-30 284t-98 282t-175 239l66 101q168 -129 281 -265t172 -296t59 -345t-59 -344t-170.5 -294t-282.5 -267z" />
<glyph unicode="*" horiz-adv-x="721" d="M45 1176l45 139l193 -62v205h153v-205l191 62l49 -139l-193 -62l123 -170l-123 -88l-123 176l-122 -176l-119 88l119 170z" />
<glyph unicode="+" horiz-adv-x="1229" d="M96 416v205h416v415h205v-415h416v-205h-416v-416h-205v416h-416z" />
<glyph unicode="," horiz-adv-x="569" d="M147 0v283h275v-338q0 -195 -260 -232v125q104 11 104 99v63h-119z" />
<glyph unicode="-" horiz-adv-x="682" d="M86 483v230h510v-230h-510z" />
<glyph unicode="." horiz-adv-x="569" d="M147 0v283h275v-283h-275z" />
<glyph unicode="/" horiz-adv-x="948" d="M16 -37l693 1532h223l-692 -1532h-224z" />
<glyph unicode="0" d="M61 696q0 222 55 385t169.5 249.5t283.5 86.5q170 0 284 -86.5t169 -249t55 -385.5q0 -341 -126 -531t-382 -190q-255 0 -381.5 190t-126.5 531zM336 696q0 -258 56.5 -374.5t176.5 -116.5q121 0 177.5 116.5t56.5 374.5q0 257 -56.5 374.5t-177.5 117.5 q-120 0 -176.5 -117.5t-56.5 -374.5z" />
<glyph unicode="1" d="M190 969v168h41q119 0 187.5 30t102 84.5t52.5 141.5h205v-1393h-250v831q0 84 -22.5 111t-93.5 27h-222z" />
<glyph unicode="2" d="M98 0v217q87 53 193.5 134t208.5 183t167.5 214t65.5 215q0 213 -186 213q-72 0 -116.5 -37.5t-63.5 -107t-19 -171.5l-250 19q0 122 27.5 219.5t85.5 169t151 110.5t216 39q130 0 230.5 -52.5t156 -151.5t55.5 -228q0 -128 -52.5 -237t-133 -193.5t-175 -160 t-221.5 -177.5h602v-217h-942z" />
<glyph unicode="3" d="M76 455h262q0 -115 58.5 -182.5t170.5 -67.5q97 0 153 59t56 156q0 74 -27.5 120t-74.5 66.5t-103 20.5h-100v217h100q81 0 132 38.5t51 116.5q0 89 -48.5 139t-136.5 50q-175 0 -196 -240l-273 58q34 202 159 306.5t331 104.5q118 0 217.5 -42t160 -126t60.5 -205 q0 -233 -229 -292v-4q88 -21 146 -68t87 -117t31 -160q0 -104 -39 -185t-110.5 -135t-163.5 -81t-191 -27q-220 0 -351.5 115.5t-131.5 364.5z" />
<glyph unicode="4" d="M49 319v193l610 881h256v-856h175v-218h-175v-319h-249v319h-617zM311 537h355v561h-4z" />
<glyph unicode="5" d="M68 385l286 23q2 -90 57 -152.5t144 -62.5q79 0 131 39.5t75 105t23 141.5q0 134 -61.5 198t-171.5 64q-76 0 -122 -32.5t-77 -100.5l-237 19l98 766h778l-26 -242h-539l-43 -291q110 98 250 98q143 0 241.5 -64t147.5 -173.5t49 -239.5q0 -153 -67 -269t-185.5 -176.5 t-265.5 -60.5q-207 0 -341.5 104t-143.5 306z" />
<glyph unicode="6" d="M88 662q0 222 58.5 393.5t175.5 266.5t286 95q177 0 288.5 -90.5t139.5 -263.5l-264 -35q-6 74 -50 117t-116 43q-91 0 -146 -67.5t-76.5 -163.5t-21.5 -193h5q33 50 99.5 89.5t172.5 39.5q97 0 175 -33.5t130 -93.5t79.5 -144t27.5 -188q0 -94 -33.5 -179t-97 -148.5 t-149 -97.5t-185.5 -34q-144 0 -243 59t-154.5 157.5t-78 218.5t-22.5 252zM383 434q0 -108 53.5 -168.5t149.5 -60.5q97 0 149.5 60.5t52.5 168.5q0 109 -52 169.5t-150 60.5t-150.5 -60.5t-52.5 -169.5z" />
<glyph unicode="7" d="M121 1139v254h919v-230q-102 -97 -206 -290.5t-176.5 -425t-90.5 -447.5h-336q21 158 63 306t102.5 282.5t144 269t200.5 281.5h-620z" />
<glyph unicode="8" d="M51 403q0 71 25.5 132.5t71.5 108.5t116 83q-54 28 -93 73t-59 98t-20 106q0 214 136.5 313.5t340.5 99.5q205 0 341.5 -99.5t136.5 -313.5q0 -53 -20.5 -107t-60 -98.5t-92.5 -71.5q100 -48 156.5 -131.5t56.5 -192.5q0 -145 -76 -241.5t-194.5 -141.5t-247.5 -45 t-248 45t-194.5 142.5t-75.5 240.5zM338 403q0 -100 62.5 -149t168.5 -49q107 0 169.5 49t62.5 149q0 101 -62.5 150t-169.5 49q-106 0 -168.5 -49t-62.5 -150zM367 1004q0 -185 202 -185q203 0 203 185q0 184 -203 184q-202 0 -202 -184z" />
<glyph unicode="9" d="M88 958q0 127 59 233t165 166t241 60q194 0 305.5 -98t152 -250.5t40.5 -337.5q0 -223 -58.5 -394t-176 -266.5t-286.5 -95.5q-177 0 -287.5 90t-140.5 265l265 35q6 -73 50.5 -116.5t114.5 -43.5q134 0 189 131t55 293h-4q-35 -52 -102 -90.5t-170 -38.5 q-192 0 -302 125.5t-110 332.5zM350 958q0 -108 53.5 -168.5t149.5 -60.5t149.5 60.5t53.5 168.5q0 109 -52.5 169.5t-150.5 60.5t-150.5 -60.5t-52.5 -169.5z" />
<glyph unicode=":" horiz-adv-x="569" d="M147 0v283h275v-283h-275zM147 766v283h275v-283h-275z" />
<glyph unicode=";" horiz-adv-x="569" d="M147 0v283h275v-338q0 -195 -260 -232v125q104 11 104 99v63h-119zM147 766v283h275v-283h-275z" />
<glyph unicode="&#x3c;" horiz-adv-x="1229" d="M96 440v156l1037 457v-217l-760 -318l760 -317v-217z" />
<glyph unicode="=" horiz-adv-x="1229" d="M96 201v205h1037v-205h-1037zM96 631v205h1037v-205h-1037z" />
<glyph unicode="&#x3e;" horiz-adv-x="1229" d="M96 -16v217l760 317l-760 318v217l1037 -457v-156z" />
<glyph unicode="?" horiz-adv-x="1176" d="M80 1010q4 110 42 201.5t104.5 154.5t157.5 96t204 33q131 0 243 -53t178 -152t66 -229q0 -101 -32 -171t-86.5 -121t-147.5 -116q-59 -40 -83 -86.5t-24 -115.5v-76h-229v117q0 88 10 143.5t40.5 100t84.5 79.5q52 32 91 62.5t64 73t25 100.5q0 57 -28 103.5t-77.5 72.5 t-113.5 26q-118 0 -176 -78t-63 -200zM451 0v283h274v-283h-274z" />
<glyph unicode="@" horiz-adv-x="1638" d="M78 731q0 209 105 385.5t283 277.5t388 101q138 0 267.5 -46t228 -130t155 -200.5t56.5 -252.5q0 -143 -51.5 -255t-132.5 -188.5t-166.5 -115.5t-151.5 -39q-53 0 -86.5 33.5t-36.5 93.5h-4q-121 -127 -240 -127q-72 0 -130 27.5t-99 76t-61.5 110.5t-20.5 132 q0 113 35 212t95.5 171t140 112t171.5 40q95 0 155.5 -34.5t96.5 -113.5l35 119h170l-141 -542q-17 -59 -17 -86q0 -43 41 -43q57 0 113.5 51.5t92.5 140t36 193.5q0 156 -73 270.5t-199 174.5t-281 60q-173 0 -309 -81t-210.5 -222t-74.5 -311q0 -175 78 -312.5t217 -215.5 t309 -78q165 0 274 45t195 139h162q-220 -340 -639 -340q-221 0 -398.5 98.5t-277.5 274t-100 395.5zM586 606q0 -71 35 -114t96 -43q81 0 147.5 53t104 133.5t37.5 152.5q0 84 -40.5 132.5t-109.5 48.5q-78 0 -139.5 -51.5t-96 -136t-34.5 -175.5z" />
<glyph unicode="A" horiz-adv-x="1290" d="M-2 0l487 1458h320l487 -1458h-286l-84 283h-553l-84 -283h-287zM442 524h406l-201 668h-4z" />
<glyph unicode="B" horiz-adv-x="1366" d="M133 0v1458h686q94 0 172 -23t137 -69.5t91 -114t32 -155.5q0 -120 -64 -196.5t-183 -98.5v-4q96 -10 167 -62t108.5 -130.5t37.5 -168.5q0 -172 -73.5 -268.5t-197.5 -132t-292 -35.5h-621zM408 242h356q131 0 198.5 46.5t67.5 155.5q0 119 -69 171.5t-199 52.5h-354 v-426zM408 872h325q102 0 167 45.5t65 141.5q0 55 -25 96.5t-76.5 63.5t-130.5 22h-325v-369z" />
<glyph unicode="C" horiz-adv-x="1403" d="M80 729q0 153 48.5 294t139 246t221.5 165.5t289 60.5q226 0 380.5 -117.5t205.5 -341.5l-264 -67q-16 121 -106.5 196.5t-215.5 75.5q-138 0 -230.5 -72.5t-136.5 -188.5t-44 -251t44 -251t136.5 -188.5t230.5 -72.5q260 0 352 295l250 -115q-87 -220 -235.5 -327 t-366.5 -107q-170 0 -302.5 60.5t-219.5 165.5t-131.5 245t-44.5 295z" />
<glyph unicode="D" horiz-adv-x="1442" d="M133 0v1458h512q244 0 404 -92.5t236.5 -256.5t76.5 -380q0 -356 -170.5 -542.5t-495.5 -186.5h-563zM408 254h249q142 0 233.5 41.5t138 145t46.5 288.5q0 146 -44.5 252.5t-140 164.5t-239.5 58h-243v-950z" />
<glyph unicode="E" horiz-adv-x="1251" d="M133 0v1458h1032v-254h-757v-332h696v-241h-696v-377h811v-254h-1086z" />
<glyph unicode="F" horiz-adv-x="1100" d="M133 0v1458h959v-254h-684v-348h598v-242h-598v-614h-275z" />
<glyph unicode="G" horiz-adv-x="1518" d="M80 729q0 153 48.5 294t139 246t221.5 165.5t289 60.5q223 0 380.5 -109t240.5 -319l-256 -104q-17 67 -58.5 130t-118.5 105.5t-188 42.5q-138 0 -230.5 -72.5t-136.5 -188.5t-44 -251t44 -251t136.5 -188.5t230.5 -72.5q98 0 183.5 43t136.5 120.5t51 174.5h-361v242 h611v-797h-238v125q-69 -78 -175 -120t-208 -42q-170 0 -302.5 60.5t-219.5 165.5t-131.5 245t-44.5 295z" />
<glyph unicode="H" horiz-adv-x="1442" d="M133 0v1458h275v-547h626v547h275v-1458h-275v657h-626v-657h-275z" />
<glyph unicode="I" horiz-adv-x="569" d="M147 0v1458h275v-1458h-275z" />
<glyph unicode="J" horiz-adv-x="797" d="M25 -18v264q36 -17 143 -17q87 0 147 41.5t60 145.5v1042h274v-1145q0 -127 -68 -205.5t-170 -111.5t-204 -33q-91 0 -182 19z" />
<glyph unicode="K" horiz-adv-x="1327" d="M133 0v1458h275v-655l577 655h326l-477 -553l509 -905h-317l-385 682l-233 -264v-418h-275z" />
<glyph unicode="L" horiz-adv-x="1024" d="M133 0v1458h275v-1204h591v-254h-866z" />
<glyph unicode="M" horiz-adv-x="1630" d="M133 0v1458h420l266 -1130h4l267 1130h407v-1458h-262v1217h-4l-287 -1217h-258l-287 1217h-4v-1217h-262z" />
<glyph unicode="N" horiz-adv-x="1405" d="M143 0v1458h252l613 -1038h4v1038h250v-1458h-252l-613 1038h-4v-1038h-250z" />
<glyph unicode="O" horiz-adv-x="1556" d="M80 729q0 153 48.5 294t139 246t221.5 165.5t289 60.5q209 0 368.5 -103t245 -279.5t85.5 -383.5q0 -156 -47.5 -293.5t-139 -244.5t-222 -167.5t-290.5 -60.5t-290 61t-220.5 166t-139 246t-48.5 293zM367 729q0 -135 44 -251t136.5 -188.5t230.5 -72.5q105 0 184 43 t129.5 115t74.5 162.5t24 191.5t-24 191.5t-74.5 163.5t-129.5 115t-184 42q-138 0 -230.5 -72.5t-136.5 -188.5t-44 -251z" />
<glyph unicode="P" horiz-adv-x="1251" d="M133 0v1458h580q166 0 281 -63t172 -174.5t57 -253.5q0 -143 -62 -250t-175.5 -166t-254.5 -59h-323v-492h-275zM408 721h272q124 0 190 67.5t66 178.5q0 97 -33 155.5t-92 82.5t-141 24h-262v-508z" />
<glyph unicode="Q" horiz-adv-x="1593" d="M80 729q0 153 48.5 294t139 246t221.5 165.5t289 60.5q209 0 368.5 -103t245 -279.5t85.5 -383.5q0 -242 -117 -434q99 -115 256 -115l-78 -256q-85 25 -181.5 79t-150.5 112q-43 -37 -90 -64t-100 -47t-116 -30.5t-122 -10.5q-160 0 -290 61t-220.5 166t-139 246 t-48.5 293zM367 729q0 -135 44 -251t136.5 -188.5t230.5 -72.5q105 0 184 43t129.5 115t74.5 162.5t24 191.5t-24 191.5t-74.5 163.5t-129.5 115t-184 42q-138 0 -230.5 -72.5t-136.5 -188.5t-44 -251z" />
<glyph unicode="R" horiz-adv-x="1290" d="M133 0v1458h608q116 0 207 -32t154.5 -90.5t97 -139t33.5 -178.5q0 -148 -52 -239t-109.5 -127.5t-127.5 -63.5l326 -588h-318l-282 537h-262v-537h-275zM408 778h299q105 0 172 59.5t67 159.5q0 104 -71 162t-209 58h-258v-439z" />
<glyph unicode="S" horiz-adv-x="1327" d="M0 270l233 168q78 -112 192 -166.5t249 -54.5q121 0 215 45t94 141q0 54 -33 89t-96.5 57t-171.5 47l-162 37q-102 25 -177 53t-133.5 73.5t-93 115.5t-34.5 165q0 112 48.5 198.5t130 143.5t181 85t205.5 28q388 0 608 -293l-227 -172q-52 100 -150.5 155.5t-232.5 55.5 q-121 0 -198.5 -43.5t-77.5 -118.5q0 -81 69 -114.5t232 -71.5l178 -39q194 -41 308 -131.5t114 -280.5q0 -127 -53.5 -219t-148 -150.5t-206.5 -84t-231 -25.5q-189 0 -358.5 79.5t-272.5 227.5z" />
<glyph unicode="T" horiz-adv-x="1102" d="M14 1204v254h1073v-254h-399v-1204h-274v1204h-400z" />
<glyph unicode="U" horiz-adv-x="1442" d="M133 449v1009h275v-938q0 -142 71.5 -216.5t241.5 -74.5q171 0 242 74t71 217v938h275v-1009q0 -146 -73.5 -257t-207 -170t-307.5 -59q-130 0 -238.5 34t-187 98t-120.5 155t-42 199z" />
<glyph unicode="V" horiz-adv-x="1217" d="M-2 1458h287l321 -1163h4l322 1163h287l-426 -1458h-369z" />
<glyph unicode="W" horiz-adv-x="1708" d="M18 1458h277l201 -1139h8l221 1139h274l215 -1126h5l194 1126h277l-299 -1458h-320l-215 1049h-4l-215 -1049h-320z" />
<glyph unicode="X" horiz-adv-x="1327" d="M12 0l488 788l-416 670h317l263 -422l262 422h317l-416 -670l488 -788h-316l-335 543l-336 -543h-316z" />
<glyph unicode="Y" horiz-adv-x="1290" d="M23 1458h305l317 -602l318 602h305l-486 -889v-569h-274v569z" />
<glyph unicode="Z" horiz-adv-x="1214" d="M39 0v242l786 975h-719v241h1070v-241l-785 -975h785v-242h-1137z" />
<glyph unicode="[" horiz-adv-x="721" d="M137 -229v1687h541v-205h-279v-1278h279v-204h-541z" />
<glyph unicode="\" horiz-adv-x="948" d="M16 1495h224l692 -1532h-223z" />
<glyph unicode="]" horiz-adv-x="721" d="M43 -25h279v1278h-279v205h541v-1687h-541v204z" />
<glyph unicode="^" horiz-adv-x="1229" d="M117 565l407 828h181l407 -828h-215l-283 586l-282 -586h-215z" />
<glyph unicode="_" horiz-adv-x="1024" d="M0 -154h1024v-102h-1024v102z" />
<glyph unicode="`" horiz-adv-x="494" d="M-59 1458h274l186 -295h-170z" />
<glyph unicode="a" horiz-adv-x="1100" d="M49 301q0 140 91.5 219t224.5 105l104 20q85 17 123.5 25t79.5 17.5t67 19.5v30q0 131 -196 131q-108 0 -150.5 -35t-42.5 -120l-250 10q0 115 61 191.5t160.5 111.5t221.5 35q204 0 325 -69.5t121 -270.5v-547q0 -71 11 -108t28 -66h-264q-25 39 -25 94 q-146 -119 -338 -119q-98 0 -178.5 40t-127 114t-46.5 172zM311 309q0 -57 47.5 -93t114.5 -36q100 0 183 49.5t83 141.5v147q-50 -25 -118 -37l-138 -28q-82 -16 -127 -46.5t-45 -97.5z" />
<glyph unicode="b" horiz-adv-x="1176" d="M123 0v1458h250v-510q123 113 295 113q99 0 182 -41.5t143 -116t92.5 -173t32.5 -212.5q0 -113 -32 -210.5t-92.5 -173.5t-143.5 -117.5t-182 -41.5q-104 0 -171 31.5t-120 93.5h-4v-100h-250zM365 518q2 -85 24.5 -154t77.5 -114t143 -45q89 0 144 45t77.5 114t24.5 154 q-2 132 -59 222.5t-187 90.5q-129 0 -186 -90.5t-59 -222.5z" />
<glyph unicode="c" horiz-adv-x="1063" d="M57 518q0 117 35 215.5t104.5 172.5t168 114.5t223.5 40.5q319 0 438 -295l-219 -100q-23 74 -84 119.5t-135 45.5q-85 0 -146 -43.5t-92 -115t-31 -154.5q0 -82 27.5 -154.5t86 -115.5t140.5 -43q100 0 158 56t94 145l213 -113q-63 -140 -171 -229t-298 -89 q-154 0 -271 70.5t-179 193.5t-62 279z" />
<glyph unicode="d" horiz-adv-x="1176" d="M57 518q0 109 33.5 210.5t94 175.5t142.5 115.5t181 41.5q172 0 295 -113v510h250v-1458h-250v100h-4q-54 -62 -120 -93.5t-171 -31.5q-130 0 -233 73t-160.5 197.5t-57.5 272.5zM319 518q4 -134 60 -223.5t186 -89.5q89 0 144 45t77.5 114t24.5 154q-2 132 -59 222.5 t-187 90.5q-88 0 -142.5 -44.5t-78 -116t-25.5 -152.5z" />
<glyph unicode="e" d="M57 518q0 117 35 215.5t104.5 172.5t168 114.5t223.5 40.5q252 0 374.5 -157.5t122.5 -444.5h-766q4 -112 84 -183t185 -71q126 0 193.5 46.5t105.5 100.5l211 -123q-168 -254 -510 -254q-122 0 -221.5 41t-169.5 115.5t-105 172.5t-35 214zM319 651h504q0 33 -26 82 t-79 86t-130 37q-105 0 -176 -57.5t-93 -147.5z" />
<glyph unicode="f" horiz-adv-x="645" d="M10 856v180h152v164q0 99 40 156.5t107 79.5t158 22q85 0 168 -6v-217q-40 6 -82 6q-75 0 -108 -31t-33 -100v-74h223v-180h-223v-856h-250v856h-152z" />
<glyph unicode="g" horiz-adv-x="1176" d="M57 557q0 116 33.5 209t94 159t143.5 101t180 35q105 0 172.5 -32t118.5 -93h4v100h250v-1013q0 -140 -66.5 -222t-185 -113.5t-287.5 -31.5q-153 0 -247.5 50.5t-134.5 123t-40 147.5h262q9 -37 36 -66t70.5 -46t106.5 -17q117 0 176.5 55t59.5 154v111 q-56 -60 -136 -87.5t-159 -27.5q-129 0 -232 61.5t-161 175.5t-58 267zM319 557q4 -106 61.5 -190t184.5 -84q128 0 186 84.5t60 189.5q-2 105 -60 189.5t-186 84.5q-127 0 -184.5 -84t-61.5 -190z" />
<glyph unicode="h" horiz-adv-x="1176" d="M123 0v1458h250v-524h4q97 127 297 127q76 0 141.5 -18t119 -60t86 -115.5t32.5 -181.5v-686h-250v614q0 108 -44 156.5t-141 48.5q-128 0 -186.5 -86.5t-58.5 -200.5v-532h-250z" />
<glyph unicode="i" horiz-adv-x="496" d="M123 0v1036h250v-1036h-250zM123 1204v254h250v-254h-250z" />
<glyph unicode="j" horiz-adv-x="496" d="M-6 -115h10q44 0 81.5 18.5t37.5 67.5v1065h250v-1149q0 -133 -95 -182t-251 -49h-33v229zM123 1204v254h250v-254h-250z" />
<glyph unicode="k" horiz-adv-x="1100" d="M123 0v1458h250v-811l393 389h324l-402 -403l440 -633h-305l-309 465l-141 -139v-326h-250z" />
<glyph unicode="l" horiz-adv-x="496" d="M123 0v1458h250v-1458h-250z" />
<glyph unicode="m" horiz-adv-x="1782" d="M123 0v1036h250v-102q60 62 132 94.5t167 32.5q103 0 186.5 -37.5t118.5 -118.5q117 156 319 156q113 0 194.5 -36.5t125 -110.5t43.5 -185v-729h-250v629q0 93 -43 147.5t-127 54.5q-100 0 -161.5 -84t-61.5 -200v-547h-250v629q0 94 -43.5 148t-130.5 54 q-98 0 -158.5 -84t-60.5 -200v-547h-250z" />
<glyph unicode="n" d="M123 0v1036h250v-102h4q36 43 83 72t97 42t102 13q357 0 357 -352v-709h-250v633q0 49 -17 92t-55.5 68.5t-99.5 25.5q-62 0 -112 -29t-79.5 -90.5t-29.5 -152.5v-547h-250z" />
<glyph unicode="o" horiz-adv-x="1176" d="M57 518q0 117 35 215.5t104.5 172.5t168 114.5t223.5 40.5q162 0 283.5 -71t184 -193.5t62.5 -278.5t-62.5 -278.5t-184 -193.5t-283.5 -71q-122 0 -221.5 41t-169.5 115.5t-105 172.5t-35 214zM319 518q0 -82 31 -154t92 -115.5t146 -43.5q63 0 115 25.5t85 68.5 t50.5 98.5t17.5 120.5q0 82 -30.5 154.5t-91.5 115.5t-146 43t-146 -43.5t-92 -115t-31 -154.5z" />
<glyph unicode="p" horiz-adv-x="1176" d="M123 -332v1368h250v-88h4q123 113 295 113q97 0 178.5 -41t142 -116t93 -173.5t32.5 -212.5q0 -113 -32 -210.5t-92.5 -173.5t-143.5 -117.5t-182 -41.5q-104 0 -171 31t-124 94v-432h-250zM365 518q2 -85 24.5 -154t77.5 -114t143 -45q89 0 144 45t77.5 114t24.5 154 q-2 132 -59 222.5t-187 90.5q-129 0 -186 -90.5t-59 -222.5z" />
<glyph unicode="q" horiz-adv-x="1176" d="M57 518q0 109 32 208.5t94 176t143 117.5t178 41q100 0 162.5 -26.5t132.5 -86.5h4v88h250v-1368h-250v432h-4q-50 -62 -116 -93.5t-171 -31.5q-132 0 -236 73t-161.5 197t-57.5 273zM319 518q4 -134 60 -223.5t186 -89.5q89 0 144 45t77.5 114t24.5 154 q-2 132 -59 222.5t-187 90.5q-88 0 -142.5 -44.5t-78 -116t-25.5 -152.5z" />
<glyph unicode="r" horiz-adv-x="721" d="M123 0v1036h250v-143h4q83 168 319 168v-254q-141 0 -232 -73t-91 -232v-502h-250z" />
<glyph unicode="s" horiz-adv-x="1024" d="M31 164l188 145q43 -62 120 -95.5t179 -33.5q84 0 142.5 38t58.5 83q0 57 -119 85.5t-234.5 53.5t-201.5 89t-86 196q0 112 60 187.5t163 112t236 36.5q161 0 266 -59.5t162 -129.5l-174 -163q-25 57 -92 102t-169 45q-86 0 -138 -27t-52 -73q0 -58 115 -84.5 t238.5 -50.5t211.5 -87t88 -196q0 -90 -36.5 -159t-102.5 -115t-147.5 -67.5t-174.5 -21.5q-173 0 -299 51.5t-202 137.5z" />
<glyph unicode="t" horiz-adv-x="645" d="M10 856v180h152v367h250v-367h223v-180h-223v-524q0 -68 22 -97.5t90 -29.5q12 0 33.5 2t42.5 5.5t35 4.5v-205q-120 -24 -199 -24q-148 0 -211 63t-63 187v618h-152z" />
<glyph unicode="u" horiz-adv-x="1176" d="M123 350v686h250v-614q0 -108 45 -156.5t139 -48.5q130 0 188 76t58 186v557h250v-1036h-250v102h-4q-46 -57 -121 -92t-176 -35q-100 0 -184.5 33t-139.5 116.5t-55 225.5z" />
<glyph unicode="v" horiz-adv-x="950" d="M2 1036h264l207 -717h4l207 717h264l-342 -1036h-262z" />
<glyph unicode="w" horiz-adv-x="1520" d="M16 1036h258l175 -704h4l194 704h225l195 -704h4l174 704h258l-299 -1036h-246l-196 694h-4l-197 -694h-246z" />
<glyph unicode="x" horiz-adv-x="987" d="M-10 0l358 559l-311 477h291l166 -254l165 254h291l-311 -477l358 -559h-299l-204 328l-205 -328h-299z" />
<glyph unicode="y" horiz-adv-x="948" d="M0 1036h268l224 -753h4l194 753h258l-340 -1128q-29 -98 -69 -151.5t-101.5 -77t-152.5 -23.5q-71 0 -150 14v224q45 -9 98 -9q58 0 87.5 19t52.5 69z" />
<glyph unicode="z" horiz-adv-x="985" d="M53 0v193l549 626h-491v217h821v-192l-543 -627h543v-217h-879z" />
<glyph unicode="{" horiz-adv-x="721" d="M92 543v143q144 0 144 186v349q0 90 26 141.5t82 73.5t154 22h168v-143h-78q-53 0 -78 -26t-25 -85v-358q0 -120 -52 -167t-134 -63v-4q81 -14 133.5 -61.5t52.5 -167.5v-358q0 -59 25 -85t78 -26h78v-143h-168q-98 0 -154 22t-82 73.5t-26 141.5v348q0 187 -144 187z " />
<glyph unicode="|" horiz-adv-x="455" d="M125 -37v1532h205v-1532h-205z" />
<glyph unicode="}" horiz-adv-x="721" d="M55 -86h78q53 0 78 26t25 85v358q0 118 53.5 166.5t132.5 62.5v4q-52 10 -91 30t-67 69t-28 131v358q0 59 -25 85t-78 26h-78v143h168q98 0 154 -22t82 -73.5t26 -141.5v-349q0 -186 144 -186v-143q-144 0 -144 -187v-348q0 -90 -26 -141.5t-82 -73.5t-154 -22h-168v143z " />
<glyph unicode="~" horiz-adv-x="1229" d="M141 514q92 176 256 176q79 0 228 -65q27 -12 74.5 -32.5t83 -31t59.5 -10.5q49 0 87.5 38.5t84.5 108.5l73 -176q-92 -176 -256 -176q-47 0 -99.5 16.5t-127.5 49.5q-93 39 -136.5 56t-80.5 17q-49 0 -85.5 -36t-86.5 -111z" />
<glyph unicode="&#xa1;" horiz-adv-x="532" d="M129 258l80 518h115l79 -518v-565h-274v565zM129 868v283h274v-283h-274z" />
<glyph unicode="&#xa2;" d="M80 518q0 139 51 255t149.5 191.5t233.5 96.5v229h168v-229q255 -26 367 -295l-220 -100q-17 55 -56 95.5t-91 57.5v-600q56 23 98.5 74t65.5 113l213 -113q-41 -92 -100.5 -159.5t-132 -108.5t-144.5 -50v-229h-168v229q-137 22 -234.5 98t-148.5 191.5t-51 253.5z M342 518q0 -102 44.5 -182t127.5 -113v590q-82 -32 -127 -112.5t-45 -182.5z" />
<glyph unicode="&#xa3;" d="M49 195q0 57 26 107t72.5 81t102.5 31q83 0 174 -43q0 57 -8 110.5t-19 81.5h-278v193h162q-52 65 -88.5 141.5t-36.5 149.5q0 185 118.5 277.5t313.5 92.5q256 0 359.5 -129t103.5 -389h-273q10 48 10 86q0 96 -46 149.5t-140 53.5q-77 0 -124.5 -41t-47.5 -117 q0 -42 17 -81.5t50 -99.5t44 -93h250v-193h-185q2 -24 4.5 -47t4 -41.5t1.5 -30.5q0 -84 -28 -157q20 -10 46.5 -24t51.5 -24t47 -10q57 0 75.5 67.5t18.5 145.5h263v-10q0 -77 -11 -153.5t-41.5 -147t-86 -113.5t-138.5 -43q-127 0 -317 129q-101 -116 -234 -116 q-95 0 -154 57t-59 150zM193 186q0 -25 17 -40t46 -15q65 0 106 57q-60 58 -112 58q-23 0 -38.5 -14.5t-18.5 -45.5z" />
<glyph unicode="&#xa4;" d="M47 281l117 116q-52 61 -77.5 137t-25.5 162t25.5 166.5t77.5 132.5l-117 117l107 107l116 -115q37 31 87.5 54t103.5 34.5t108 11.5t108.5 -11.5t104.5 -35t86 -53.5l117 115l107 -107l-117 -117q53 -53 77.5 -130.5t24.5 -168.5q0 -86 -26 -163t-76 -136l117 -116 l-107 -107l-117 119q-52 -51 -132 -78t-167 -27q-85 0 -165.5 27t-133.5 78l-116 -119zM279 696q0 -128 79.5 -215.5t210.5 -87.5q87 0 153.5 40.5t102 109.5t35.5 153q0 83 -35.5 152t-101.5 110t-154 41q-130 0 -210 -88t-80 -215z" />
<glyph unicode="&#xa5;" d="M10 1393h250l309 -590l310 590h249l-323 -602h209v-168h-299l-21 -37v-121h320v-168h-320v-297h-250v297h-319v168h319v121l-20 37h-299v168h209z" />
<glyph unicode="&#xa6;" horiz-adv-x="455" d="M125 -37v600h205v-600h-205zM125 895v600h205v-600h-205z" />
<glyph unicode="&#xa7;" d="M53 625q0 229 232 325q-133 94 -133 236q0 103 55.5 172.5t143 103t186.5 33.5q111 0 213.5 -23.5t216.5 -72.5l-111 -199q-90 42 -166.5 66t-140.5 24q-59 0 -97 -17.5t-38 -55.5q0 -21 8 -34t25.5 -27.5t56.5 -36t84 -46.5l311 -166q63 -33 104 -74t61.5 -94.5 t20.5 -117.5q0 -107 -60 -186.5t-161 -135.5q61 -37 96 -100t35 -131q0 -86 -38.5 -149t-104 -104t-145 -61t-160.5 -20q-134 0 -233.5 35.5t-190.5 89.5l123 186q147 -106 284 -106q75 0 133 24.5t58 71.5q0 33 -38 60.5t-136 74.5l-283 143q-211 110 -211 312zM283 682 q0 -50 26.5 -79t91.5 -64l301 -152q70 22 112 64t42 108q0 50 -27 79t-92 62l-301 152q-66 -19 -109.5 -62.5t-43.5 -107.5z" />
<glyph unicode="&#xa8;" horiz-adv-x="494" d="M-47 1188v229h229v-229h-229zM311 1188v229h230v-229h-230z" />
<glyph unicode="&#xa9;" horiz-adv-x="1638" d="M53 729q0 167 61 309t168.5 244.5t246 157.5t290.5 55q153 0 292 -55t245.5 -157t167.5 -243.5t61 -310.5q0 -168 -61 -310t-167.5 -243t-245.5 -157t-292 -56q-152 0 -290.5 55.5t-245.5 157t-168.5 244.5t-61.5 309zM246 729q0 -126 43 -238.5t121 -196t184 -129.5 t225 -46q160 0 291.5 80t207 220.5t75.5 309.5q0 168 -75.5 309t-207 221t-291.5 80q-122 0 -227.5 -46.5t-182 -128.5t-120 -195.5t-43.5 -239.5zM401 729q0 133 53.5 237.5t154 164t233.5 59.5q97 0 179.5 -36.5t138 -107.5t73.5 -174h-180q-10 50 -39.5 87t-73 56 t-98.5 19q-76 0 -132.5 -40t-86 -110.5t-29.5 -154.5q0 -77 31.5 -145t88 -108t128.5 -40q89 0 145 40t66 118h180q-18 -102 -73.5 -174.5t-138 -112t-179.5 -39.5q-129 0 -229.5 60.5t-156 167t-55.5 233.5z" />
<glyph unicode="&#xaa;" horiz-adv-x="715" d="M25 961q0 76 45.5 119.5t116.5 64t163 35t123 24.5v19q0 65 -129 65q-56 0 -81 -19t-25 -61l-181 6q0 103 83 153t210 50q152 0 234 -41t82 -164v-327q0 -56 24 -107h-190q-15 23 -15 60q-97 -72 -233 -72q-96 0 -161.5 53.5t-65.5 141.5zM217 969q0 -60 94 -60 q63 0 112.5 28t49.5 79v63q-29 -13 -72 -21.5t-88.5 -18.5t-70.5 -26t-25 -44z" />
<glyph unicode="&#xab;" horiz-adv-x="872" d="M100 449v299l295 231v-238l-172 -143l172 -143v-238zM477 449v299l295 231v-238l-172 -143l172 -143v-238z" />
<glyph unicode="&#xac;" horiz-adv-x="1229" d="M96 631v205h1037v-623h-205v418h-832z" />
<glyph unicode="&#xad;" horiz-adv-x="682" d="M86 483v230h510v-230h-510z" />
<glyph unicode="&#xae;" horiz-adv-x="1638" d="M53 729q0 167 61 309t168.5 244.5t246 157.5t290.5 55q153 0 292 -55t245.5 -157t167.5 -243.5t61 -310.5q0 -168 -61 -310t-167.5 -243t-245.5 -157t-292 -56q-152 0 -290.5 55.5t-245.5 157t-168.5 244.5t-61.5 309zM246 729q0 -126 43 -238.5t121 -196t184 -129.5 t225 -46q160 0 291.5 80t207 220.5t75.5 309.5q0 168 -75.5 309t-207 221t-291.5 80q-122 0 -227.5 -46.5t-182 -128.5t-120 -195.5t-43.5 -239.5zM518 297v866h334q159 0 239 -60t80 -194q0 -112 -61 -174t-158 -71l226 -367h-181l-221 360h-90v-360h-168zM686 801h137 q90 0 135.5 22t45.5 88q0 65 -46.5 87t-134.5 22h-137v-219z" />
<glyph unicode="&#xaf;" horiz-adv-x="494" d="M-47 1233v143h588v-143h-588z" />
<glyph unicode="&#xb0;" horiz-adv-x="819" d="M117 1124q0 85 36 152.5t102.5 104t154.5 36.5q87 0 153.5 -36.5t102.5 -104t36 -152.5t-36 -152.5t-102.5 -104t-153.5 -36.5q-88 0 -154.5 36.5t-102.5 104t-36 152.5zM260 1124q0 -59 46 -104t104 -45q59 0 104 45t45 104q0 37 -21 72.5t-56 56.5t-72 21 q-58 0 -104 -45t-46 -105z" />
<glyph unicode="&#xb1;" horiz-adv-x="1229" d="M96 0v205h1037v-205h-1037zM96 555v205h416v276h205v-276h416v-205h-416v-276h-205v276h-416z" />
<glyph unicode="&#xb2;" horiz-adv-x="739" d="M47 602v78q0 31 21 41q58 34 126 82.5t127.5 102.5t97.5 114t38 115q0 114 -103 114q-61 0 -81.5 -42t-20.5 -124l-205 11q0 150 80 236.5t248 86.5q92 0 159 -31.5t103.5 -90t36.5 -136.5t-33.5 -142.5t-86.5 -114.5t-114.5 -91t-111.5 -74v-4h358v-168h-590 q-24 0 -36.5 11.5t-12.5 25.5z" />
<glyph unicode="&#xb3;" horiz-adv-x="739" d="M33 840h192q0 -54 36.5 -86.5t98.5 -32.5q129 0 129 110q0 97 -127 97h-57v155h62q51 0 81.5 20t30.5 60t-28.5 63t-81.5 23q-59 0 -89 -31.5t-30 -80.5l-199 34q22 121 109 183.5t225 62.5q126 0 212.5 -57.5t86.5 -165.5q0 -139 -162 -176v-4q88 -16 136.5 -69.5 t48.5 -135.5q0 -84 -45.5 -141.5t-122.5 -86t-174 -28.5q-148 0 -240 69t-92 218z" />
<glyph unicode="&#xb4;" horiz-adv-x="494" d="M92 1163l187 295h274l-291 -295h-170z" />
<glyph unicode="&#xb5;" horiz-adv-x="1176" d="M123 -332v1368h250v-614q0 -108 45 -156.5t139 -48.5q130 0 188 76t58 186v557h250v-1036h-250v102h-4q-46 -57 -121 -92t-176 -35q-87 0 -133 37v-344h-246z" />
<glyph unicode="&#xb6;" horiz-adv-x="1229" d="M41 1077q0 200 127 290.5t356 90.5h555v-1687h-180v1532h-235v-1532h-181v940q-200 0 -321 102t-121 264z" />
<glyph unicode="&#xb8;" horiz-adv-x="494" d="M82 -408l37 82q44 -14 73.5 -22t59.5 -8q123 0 123 82q0 71 -101 71q-36 0 -71 -14l-45 39l135 178h98l-90 -117l4 -4q20 10 66 10q64 0 118 -41t54 -114q0 -96 -75 -145.5t-175 -49.5q-65 0 -107 12.5t-104 40.5z" />
<glyph unicode="&#xb9;" horiz-adv-x="739" d="M113 1135v131h26q111 0 157.5 35t65.5 104h158v-840h-192v496q0 43 -15 58.5t-61 15.5h-139z" />
<glyph unicode="&#xba;" horiz-adv-x="764" d="M27 1092q0 92 41.5 166.5t122.5 116.5t192 42q110 0 191 -42t122 -116.5t41 -166.5q0 -94 -41 -167.5t-120.5 -116t-192.5 -42.5q-114 0 -193.5 42t-121 116t-41.5 168zM219 1092q0 -64 45.5 -117t118.5 -53t117.5 53t44.5 117q0 63 -44.5 116.5t-117.5 53.5 t-118.5 -53.5t-45.5 -116.5z" />
<glyph unicode="&#xbb;" horiz-adv-x="872" d="M100 217v238l172 143l-172 143v238l295 -231v-299zM477 217v238l172 143l-172 143v238l295 -231v-299z" />
<glyph unicode="&#xbc;" horiz-adv-x="1708" d="M82 1135v131h27q112 0 158 35.5t65 103.5h157v-840h-192v496q0 44 -15 59t-61 15h-139zM291 -78l852 1548h178l-852 -1548h-178zM934 172v135l395 533h191v-512h106v-156h-106v-172h-193v172h-393zM1114 328h213v288h-4z" />
<glyph unicode="&#xbd;" horiz-adv-x="1708" d="M82 1135v131h27q112 0 158 35.5t65 103.5h157v-840h-192v496q0 44 -15 59t-61 15h-139zM270 -78l852 1548h178l-851 -1548h-179zM987 37v78q0 31 21 41q58 34 126 82.5t127.5 102.5t97.5 114t38 114q0 115 -103 115q-61 0 -81.5 -42t-20.5 -124l-205 10q0 99 34 171 t108 112.5t186 40.5q92 0 159 -31.5t103.5 -90t36.5 -136.5t-33.5 -142.5t-86.5 -114.5t-114.5 -91t-111.5 -74v-4h358v-168h-590q-23 0 -36 11t-13 26z" />
<glyph unicode="&#xbe;" horiz-adv-x="1708" d="M82 840h192q0 -55 37 -87t99 -32q129 0 129 110q0 97 -127 97h-58v155h62q51 0 81.5 20t30.5 60q0 39 -28 62.5t-82 23.5q-59 0 -89 -31.5t-30 -80.5l-199 34q22 121 109 183.5t225 62.5q126 0 212.5 -57.5t86.5 -165.5q0 -139 -162 -176v-4q88 -16 136.5 -69.5 t48.5 -135.5q0 -84 -45.5 -141.5t-122.5 -86t-174 -28.5q-148 0 -240 69t-92 218zM410 -78l852 1548h178l-852 -1548h-178zM934 172v135l395 533h191v-512h106v-156h-106v-172h-193v172h-393zM1114 328h213v288h-4z" />
<glyph unicode="&#xbf;" horiz-adv-x="1176" d="M100 90q0 101 32 170.5t87 121t148 116.5q59 41 82.5 87t23.5 115v76h229v-117q0 -88 -10 -144t-39.5 -99.5t-85.5 -79.5q-52 -32 -91 -62.5t-64 -73t-25 -100.5q0 -86 62 -144t157 -58q119 0 177 78t63 200l250 -35q-5 -113 -42.5 -202.5t-103 -152t-158.5 -96.5 t-204 -34q-131 0 -243.5 53t-178.5 152t-66 229zM451 868v283h274v-283h-274z" />
<glyph unicode="&#xc0;" horiz-adv-x="1290" d="M-2 0l487 1458h320l487 -1458h-286l-84 283h-553l-84 -283h-287zM340 1843h274l186 -295h-170zM442 524h406l-201 668h-4z" />
<glyph unicode="&#xc1;" horiz-adv-x="1290" d="M-2 0l487 1458h320l487 -1458h-286l-84 283h-553l-84 -283h-287zM442 524h406l-201 668h-4zM491 1548l187 295h274l-291 -295h-170z" />
<glyph unicode="&#xc2;" horiz-adv-x="1290" d="M-2 0l487 1458h320l487 -1458h-286l-84 283h-553l-84 -283h-287zM313 1548l219 295h229l220 -295h-189l-145 178l-146 -178h-188zM442 524h406l-201 668h-4z" />
<glyph unicode="&#xc3;" horiz-adv-x="1290" d="M-2 0l487 1458h320l487 -1458h-286l-84 283h-553l-84 -283h-287zM284 1559q8 60 35 115.5t73.5 92.5t104.5 37q60 0 162 -43q16 -5 34 -12.5t29 -11.5t32 -9.5t36 -5.5q45 0 67.5 22.5t35.5 67.5h114q-8 -59 -35 -115.5t-73.5 -93t-104.5 -36.5q-15 0 -44 5t-45.5 11 t-38.5 14.5t-34 12.5q-60 23 -81 31t-50 8q-43 0 -66 -23t-36 -67h-115zM442 524h406l-201 668h-4z" />
<glyph unicode="&#xc4;" horiz-adv-x="1290" d="M-2 0l487 1458h320l487 -1458h-286l-84 283h-553l-84 -283h-287zM352 1573v229h229v-229h-229zM442 524h406l-201 668h-4zM710 1573v229h230v-229h-230z" />
<glyph unicode="&#xc5;" horiz-adv-x="1290" d="M-2 0l487 1458h320l487 -1458h-286l-84 283h-553l-84 -283h-287zM436 1720q0 83 63 147t148 64q87 0 149 -63t62 -148q0 -87 -62 -149t-149 -62q-85 0 -148 63t-63 148zM442 524h406l-201 668h-4zM528 1720q0 -50 34 -84t85 -34q50 0 84.5 34.5t34.5 83.5 q0 50 -34.5 84.5t-84.5 34.5q-51 0 -85 -34t-34 -85z" />
<glyph unicode="&#xc6;" horiz-adv-x="2048" d="M-23 0l857 1458h1134v-254h-702v-332h606v-241h-606v-377h721v-254h-996v344h-499l-195 -344h-320zM627 586h364v643h-4z" />
<glyph unicode="&#xc7;" horiz-adv-x="1403" d="M80 729q0 153 48.5 294t139 246t221.5 165.5t289 60.5q226 0 380.5 -117.5t205.5 -341.5l-264 -67q-16 121 -106.5 196.5t-215.5 75.5q-138 0 -230.5 -72.5t-136.5 -188.5t-44 -251t44 -251t136.5 -188.5t230.5 -72.5q260 0 352 295l250 -115q-87 -220 -235.5 -327 t-366.5 -107q-170 0 -302.5 60.5t-219.5 165.5t-131.5 245t-44.5 295zM537 -408l37 82q44 -14 73.5 -22t59.5 -8q123 0 123 82q0 71 -101 71q-36 0 -71 -14l-45 39l135 178h98l-90 -117l4 -4q20 10 66 10q64 0 118 -41t54 -114q0 -96 -75 -145.5t-175 -49.5q-65 0 -107 12.5 t-104 40.5z" />
<glyph unicode="&#xc8;" horiz-adv-x="1251" d="M133 0v1458h1032v-254h-757v-332h696v-241h-696v-377h811v-254h-1086zM320 1843h274l186 -295h-170z" />
<glyph unicode="&#xc9;" horiz-adv-x="1251" d="M133 0v1458h1032v-254h-757v-332h696v-241h-696v-377h811v-254h-1086zM471 1548l187 295h274l-291 -295h-170z" />
<glyph unicode="&#xca;" horiz-adv-x="1251" d="M133 0v1458h1032v-254h-757v-332h696v-241h-696v-377h811v-254h-1086zM293 1548l219 295h229l220 -295h-189l-145 178l-146 -178h-188z" />
<glyph unicode="&#xcb;" horiz-adv-x="1251" d="M133 0v1458h1032v-254h-757v-332h696v-241h-696v-377h811v-254h-1086zM332 1573v229h229v-229h-229zM690 1573v229h230v-229h-230z" />
<glyph unicode="&#xcc;" horiz-adv-x="569" d="M-20 1843h274l186 -295h-170zM147 0v1458h275v-1458h-275z" />
<glyph unicode="&#xcd;" horiz-adv-x="569" d="M131 1548l187 295h274l-291 -295h-170zM147 0v1458h275v-1458h-275z" />
<glyph unicode="&#xce;" horiz-adv-x="569" d="M-47 1548l219 295h229l220 -295h-189l-145 178l-146 -178h-188zM147 0v1458h275v-1458h-275z" />
<glyph unicode="&#xcf;" horiz-adv-x="569" d="M-8 1573v229h229v-229h-229zM147 0v1458h275v-1458h-275zM350 1573v229h230v-229h-230z" />
<glyph unicode="&#xd0;" horiz-adv-x="1442" d="M-6 668v192h139v598h563q157 0 283 -55t211 -153t128.5 -231.5t43.5 -289.5q0 -356 -170.5 -542.5t-495.5 -186.5h-563v668h-139zM408 254h249q107 0 183.5 21.5t129 74t79 145t26.5 234.5q0 146 -44.5 252.5t-138 164.5t-235.5 58h-249v-344h368v-192h-368v-414z" />
<glyph unicode="&#xd1;" horiz-adv-x="1405" d="M143 0v1458h252l613 -1038h4v1038h250v-1458h-252l-613 1038h-4v-1038h-250zM342 1559q8 60 35 115.5t73.5 92.5t104.5 37q60 0 162 -43q16 -5 34 -12.5t29 -11.5t32 -9.5t36 -5.5q45 0 67.5 22.5t35.5 67.5h114q-8 -59 -35 -115.5t-73.5 -93t-104.5 -36.5q-15 0 -44 5 t-45.5 11t-38.5 14.5t-34 12.5q-60 23 -81 31t-50 8q-43 0 -66 -23t-36 -67h-115z" />
<glyph unicode="&#xd2;" horiz-adv-x="1556" d="M80 729q0 153 48.5 294t139 246t221.5 165.5t289 60.5q209 0 368.5 -103t245 -279.5t85.5 -383.5q0 -156 -47.5 -293.5t-139 -244.5t-222 -167.5t-290.5 -60.5t-290 61t-220.5 166t-139 246t-48.5 293zM367 729q0 -135 44 -251t136.5 -188.5t230.5 -72.5q105 0 184 43 t129.5 115t74.5 162.5t24 191.5t-24 191.5t-74.5 163.5t-129.5 115t-184 42q-138 0 -230.5 -72.5t-136.5 -188.5t-44 -251zM473 1843h274l186 -295h-170z" />
<glyph unicode="&#xd3;" horiz-adv-x="1556" d="M80 729q0 153 48.5 294t139 246t221.5 165.5t289 60.5q209 0 368.5 -103t245 -279.5t85.5 -383.5q0 -156 -47.5 -293.5t-139 -244.5t-222 -167.5t-290.5 -60.5t-290 61t-220.5 166t-139 246t-48.5 293zM367 729q0 -135 44 -251t136.5 -188.5t230.5 -72.5q105 0 184 43 t129.5 115t74.5 162.5t24 191.5t-24 191.5t-74.5 163.5t-129.5 115t-184 42q-138 0 -230.5 -72.5t-136.5 -188.5t-44 -251zM624 1548l187 295h274l-291 -295h-170z" />
<glyph unicode="&#xd4;" horiz-adv-x="1556" d="M80 729q0 153 48.5 294t139 246t221.5 165.5t289 60.5q209 0 368.5 -103t245 -279.5t85.5 -383.5q0 -156 -47.5 -293.5t-139 -244.5t-222 -167.5t-290.5 -60.5t-290 61t-220.5 166t-139 246t-48.5 293zM367 729q0 -135 44 -251t136.5 -188.5t230.5 -72.5q105 0 184 43 t129.5 115t74.5 162.5t24 191.5t-24 191.5t-74.5 163.5t-129.5 115t-184 42q-138 0 -230.5 -72.5t-136.5 -188.5t-44 -251zM446 1548l219 295h229l220 -295h-189l-145 178l-146 -178h-188z" />
<glyph unicode="&#xd5;" horiz-adv-x="1556" d="M80 729q0 153 48.5 294t139 246t221.5 165.5t289 60.5q209 0 368.5 -103t245 -279.5t85.5 -383.5q0 -156 -47.5 -293.5t-139 -244.5t-222 -167.5t-290.5 -60.5t-290 61t-220.5 166t-139 246t-48.5 293zM367 729q0 -135 44 -251t136.5 -188.5t230.5 -72.5q105 0 184 43 t129.5 115t74.5 162.5t24 191.5t-24 191.5t-74.5 163.5t-129.5 115t-184 42q-138 0 -230.5 -72.5t-136.5 -188.5t-44 -251zM417 1559q8 60 35 115.5t73.5 92.5t104.5 37q60 0 162 -43q16 -5 34 -12.5t29 -11.5t32 -9.5t36 -5.5q45 0 67.5 22.5t35.5 67.5h114 q-8 -59 -35 -115.5t-73.5 -93t-104.5 -36.5q-15 0 -44 5t-45.5 11t-38.5 14.5t-34 12.5q-60 23 -81 31t-50 8q-43 0 -66 -23t-36 -67h-115z" />
<glyph unicode="&#xd6;" horiz-adv-x="1556" d="M80 729q0 153 48.5 294t139 246t221.5 165.5t289 60.5q209 0 368.5 -103t245 -279.5t85.5 -383.5q0 -156 -47.5 -293.5t-139 -244.5t-222 -167.5t-290.5 -60.5t-290 61t-220.5 166t-139 246t-48.5 293zM367 729q0 -135 44 -251t136.5 -188.5t230.5 -72.5q105 0 184 43 t129.5 115t74.5 162.5t24 191.5t-24 191.5t-74.5 163.5t-129.5 115t-184 42q-138 0 -230.5 -72.5t-136.5 -188.5t-44 -251zM485 1573v229h229v-229h-229zM843 1573v229h230v-229h-230z" />
<glyph unicode="&#xd7;" horiz-adv-x="1229" d="M131 180l338 338l-338 340l143 143l340 -337l338 337l146 -143l-338 -340l338 -338l-146 -145l-338 340l-340 -340z" />
<glyph unicode="&#xd8;" horiz-adv-x="1554" d="M35 195l145 129q-100 182 -100 405q0 153 48.5 294t139 246t221.5 165.5t289 60.5q151 0 274.5 -54t213.5 -151l123 111l131 -137l-144 -127q101 -182 101 -408q0 -156 -47.5 -293.5t-139 -244.5t-222 -167.5t-290.5 -60.5q-295 0 -487 205l-125 -111zM367 729 q0 -109 30 -211l672 598q-54 61 -125 93t-166 32q-138 0 -230.5 -72.5t-136.5 -188.5t-44 -251zM487 344q108 -127 291 -127q105 0 184 43t129.5 115t74.5 162.5t24 191.5q0 110 -31 213z" />
<glyph unicode="&#xd9;" horiz-adv-x="1442" d="M133 449v1009h275v-938q0 -142 71.5 -216.5t241.5 -74.5q171 0 242 74t71 217v938h275v-1009q0 -146 -73.5 -257t-207 -170t-307.5 -59q-130 0 -238.5 34t-187 98t-120.5 155t-42 199zM416 1843h274l186 -295h-170z" />
<glyph unicode="&#xda;" horiz-adv-x="1442" d="M133 449v1009h275v-938q0 -142 71.5 -216.5t241.5 -74.5q171 0 242 74t71 217v938h275v-1009q0 -146 -73.5 -257t-207 -170t-307.5 -59q-130 0 -238.5 34t-187 98t-120.5 155t-42 199zM567 1548l187 295h274l-291 -295h-170z" />
<glyph unicode="&#xdb;" horiz-adv-x="1442" d="M133 449v1009h275v-938q0 -142 71.5 -216.5t241.5 -74.5q171 0 242 74t71 217v938h275v-1009q0 -146 -73.5 -257t-207 -170t-307.5 -59q-130 0 -238.5 34t-187 98t-120.5 155t-42 199zM389 1548l219 295h229l220 -295h-189l-145 178l-146 -178h-188z" />
<glyph unicode="&#xdc;" horiz-adv-x="1442" d="M133 449v1009h275v-938q0 -142 71.5 -216.5t241.5 -74.5q171 0 242 74t71 217v938h275v-1009q0 -146 -73.5 -257t-207 -170t-307.5 -59q-130 0 -238.5 34t-187 98t-120.5 155t-42 199zM428 1573v229h229v-229h-229zM786 1573v229h230v-229h-230z" />
<glyph unicode="&#xdd;" horiz-adv-x="1290" d="M23 1458h305l317 -602l318 602h305l-486 -889v-569h-274v569zM491 1548l187 295h274l-291 -295h-170z" />
<glyph unicode="&#xde;" horiz-adv-x="1251" d="M133 0v1458h275v-217h323q110 0 199 -33t155 -96.5t102 -154t36 -199.5q0 -146 -62 -255.5t-175 -169t-255 -59.5h-323v-274h-275zM408 504h272q125 0 190.5 68.5t65.5 185.5q0 138 -67.5 196t-188.5 58h-272v-508z" />
<glyph unicode="&#xdf;" d="M123 0v1051q0 114 31.5 196.5t90 135t138 76.5t178.5 24q91 0 174 -24t148.5 -69t105 -116t39.5 -162q0 -93 -49 -161.5t-137 -94.5v-4q239 -81 239 -403q0 -143 -49.5 -246.5t-148.5 -159t-238 -55.5q-96 0 -182 24v244q49 -39 133 -39q105 0 164 67.5t59 172.5 q0 142 -69 213t-222 71h-57v199q34 -6 74 -6q80 0 138 43t58 127q0 77 -48.5 119.5t-127.5 42.5q-51 0 -95 -22t-70.5 -70t-26.5 -121v-1053h-250z" />
<glyph unicode="&#xe0;" horiz-adv-x="1100" d="M49 301q0 140 91.5 219t224.5 105l104 20q85 17 123.5 25t79.5 17.5t67 19.5v30q0 131 -196 131q-108 0 -150.5 -35t-42.5 -120l-250 10q0 115 61 191.5t160.5 111.5t221.5 35q204 0 325 -69.5t121 -270.5v-547q0 -71 11 -108t28 -66h-264q-25 39 -25 94 q-146 -119 -338 -119q-98 0 -178.5 40t-127 114t-46.5 172zM244 1458h274l186 -295h-170zM311 309q0 -57 47.5 -93t114.5 -36q100 0 183 49.5t83 141.5v147q-50 -25 -118 -37l-138 -28q-82 -16 -127 -46.5t-45 -97.5z" />
<glyph unicode="&#xe1;" horiz-adv-x="1100" d="M49 301q0 140 91.5 219t224.5 105l104 20q85 17 123.5 25t79.5 17.5t67 19.5v30q0 131 -196 131q-108 0 -150.5 -35t-42.5 -120l-250 10q0 115 61 191.5t160.5 111.5t221.5 35q204 0 325 -69.5t121 -270.5v-547q0 -71 11 -108t28 -66h-264q-25 39 -25 94 q-146 -119 -338 -119q-98 0 -178.5 40t-127 114t-46.5 172zM311 309q0 -57 47.5 -93t114.5 -36q100 0 183 49.5t83 141.5v147q-50 -25 -118 -37l-138 -28q-82 -16 -127 -46.5t-45 -97.5zM395 1163l187 295h274l-291 -295h-170z" />
<glyph unicode="&#xe2;" horiz-adv-x="1100" d="M49 301q0 140 91.5 219t224.5 105l104 20q85 17 123.5 25t79.5 17.5t67 19.5v30q0 131 -196 131q-108 0 -150.5 -35t-42.5 -120l-250 10q0 115 61 191.5t160.5 111.5t221.5 35q204 0 325 -69.5t121 -270.5v-547q0 -71 11 -108t28 -66h-264q-25 39 -25 94 q-146 -119 -338 -119q-98 0 -178.5 40t-127 114t-46.5 172zM217 1163l219 295h229l220 -295h-189l-145 178l-146 -178h-188zM311 309q0 -57 47.5 -93t114.5 -36q100 0 183 49.5t83 141.5v147q-50 -25 -118 -37l-138 -28q-82 -16 -127 -46.5t-45 -97.5z" />
<glyph unicode="&#xe3;" horiz-adv-x="1100" d="M49 301q0 140 91.5 219t224.5 105l104 20q85 17 123.5 25t79.5 17.5t67 19.5v30q0 131 -196 131q-108 0 -150.5 -35t-42.5 -120l-250 10q0 115 61 191.5t160.5 111.5t221.5 35q204 0 325 -69.5t121 -270.5v-547q0 -71 11 -108t28 -66h-264q-25 39 -25 94 q-146 -119 -338 -119q-98 0 -178.5 40t-127 114t-46.5 172zM188 1174q8 60 35 115.5t73.5 92.5t104.5 37q60 0 162 -43q16 -5 34 -12.5t29 -11.5t32 -9.5t36 -5.5q45 0 67.5 22.5t35.5 67.5h114q-8 -59 -35 -115.5t-73.5 -93t-104.5 -36.5q-15 0 -44 5t-45.5 11t-38.5 14.5 t-34 12.5q-60 23 -81 31t-50 8q-43 0 -66 -23t-36 -67h-115zM311 309q0 -57 47.5 -93t114.5 -36q100 0 183 49.5t83 141.5v147q-50 -25 -118 -37l-138 -28q-82 -16 -127 -46.5t-45 -97.5z" />
<glyph unicode="&#xe4;" horiz-adv-x="1100" d="M49 301q0 140 91.5 219t224.5 105l104 20q85 17 123.5 25t79.5 17.5t67 19.5v30q0 131 -196 131q-108 0 -150.5 -35t-42.5 -120l-250 10q0 115 61 191.5t160.5 111.5t221.5 35q204 0 325 -69.5t121 -270.5v-547q0 -71 11 -108t28 -66h-264q-25 39 -25 94 q-146 -119 -338 -119q-98 0 -178.5 40t-127 114t-46.5 172zM256 1188v229h229v-229h-229zM311 309q0 -57 47.5 -93t114.5 -36q100 0 183 49.5t83 141.5v147q-50 -25 -118 -37l-138 -28q-82 -16 -127 -46.5t-45 -97.5zM614 1188v229h230v-229h-230z" />
<glyph unicode="&#xe5;" horiz-adv-x="1100" d="M49 301q0 140 91.5 219t224.5 105l104 20q85 17 123.5 25t79.5 17.5t67 19.5v30q0 131 -196 131q-108 0 -150.5 -35t-42.5 -120l-250 10q0 115 61 191.5t160.5 111.5t221.5 35q204 0 325 -69.5t121 -270.5v-547q0 -71 11 -108t28 -66h-264q-25 39 -25 94 q-146 -119 -338 -119q-98 0 -178.5 40t-127 114t-46.5 172zM311 309q0 -57 47.5 -93t114.5 -36q100 0 183 49.5t83 141.5v147q-50 -25 -118 -37l-138 -28q-82 -16 -127 -46.5t-45 -97.5zM340 1298q0 83 63 147t148 64q87 0 149 -63t62 -148q0 -87 -62 -149t-149 -62 q-85 0 -148 63t-63 148zM432 1298q0 -50 34 -84t85 -34q50 0 84.5 34.5t34.5 83.5q0 50 -34.5 84.5t-84.5 34.5q-51 0 -85 -34t-34 -85z" />
<glyph unicode="&#xe6;" horiz-adv-x="1782" d="M41 301q0 142 96.5 221t253.5 109l70 14q85 17 127 25.5t80 17.5t65 19v30q0 32 -24.5 62.5t-69 49.5t-98.5 19q-96 0 -143 -45.5t-56 -109.5h-238q6 93 40.5 160.5t93.5 108.5t134 60t163 19q102 0 194 -32t154 -103q47 52 136 93.5t212 41.5q253 0 375.5 -157.5 t122.5 -444.5h-746q1 -72 37.5 -131.5t93 -91t117.5 -31.5q80 0 142.5 31.5t129.5 107.5l189 -123q-80 -110 -216 -178t-268 -68q-109 0 -204 46t-170 114q-180 -160 -439 -160q-72 0 -137 23t-113.5 65.5t-76 103.5t-27.5 134zM303 297q0 -57 47.5 -93t114.5 -36t127 25 t100.5 89.5t40.5 168.5v55q-50 -24 -121 -37l-137 -29q-85 -16 -128.5 -46.5t-43.5 -96.5zM983 651h483q0 33 -26 82t-79 86t-130 37q-120 0 -178 -64.5t-70 -140.5z" />
<glyph unicode="&#xe7;" horiz-adv-x="1063" d="M57 518q0 117 35 215.5t104.5 172.5t168 114.5t223.5 40.5q319 0 438 -295l-219 -100q-23 74 -84 119.5t-135 45.5q-85 0 -146 -43.5t-92 -115t-31 -154.5q0 -82 27.5 -154.5t86 -115.5t140.5 -43q100 0 158 56t94 145l213 -113q-63 -140 -171 -229t-298 -89 q-154 0 -271 70.5t-179 193.5t-62 279zM367 -408l37 82q44 -14 73.5 -22t59.5 -8q123 0 123 82q0 71 -101 71q-36 0 -71 -14l-45 39l135 178h98l-90 -117l4 -4q20 10 66 10q64 0 118 -41t54 -114q0 -96 -75 -145.5t-175 -49.5q-65 0 -107 12.5t-104 40.5z" />
<glyph unicode="&#xe8;" d="M57 518q0 117 35 215.5t104.5 172.5t168 114.5t223.5 40.5q252 0 374.5 -157.5t122.5 -444.5h-766q4 -112 84 -183t185 -71q126 0 193.5 46.5t105.5 100.5l211 -123q-168 -254 -510 -254q-122 0 -221.5 41t-169.5 115.5t-105 172.5t-35 214zM265 1458h274l186 -295h-170z M319 651h504q0 33 -26 82t-79 86t-130 37q-105 0 -176 -57.5t-93 -147.5z" />
<glyph unicode="&#xe9;" d="M57 518q0 117 35 215.5t104.5 172.5t168 114.5t223.5 40.5q252 0 374.5 -157.5t122.5 -444.5h-766q4 -112 84 -183t185 -71q126 0 193.5 46.5t105.5 100.5l211 -123q-168 -254 -510 -254q-122 0 -221.5 41t-169.5 115.5t-105 172.5t-35 214zM319 651h504q0 33 -26 82 t-79 86t-130 37q-105 0 -176 -57.5t-93 -147.5zM416 1163l187 295h274l-291 -295h-170z" />
<glyph unicode="&#xea;" d="M57 518q0 117 35 215.5t104.5 172.5t168 114.5t223.5 40.5q252 0 374.5 -157.5t122.5 -444.5h-766q4 -112 84 -183t185 -71q126 0 193.5 46.5t105.5 100.5l211 -123q-168 -254 -510 -254q-122 0 -221.5 41t-169.5 115.5t-105 172.5t-35 214zM238 1163l219 295h229 l220 -295h-189l-145 178l-146 -178h-188zM319 651h504q0 33 -26 82t-79 86t-130 37q-105 0 -176 -57.5t-93 -147.5z" />
<glyph unicode="&#xeb;" d="M57 518q0 117 35 215.5t104.5 172.5t168 114.5t223.5 40.5q252 0 374.5 -157.5t122.5 -444.5h-766q4 -112 84 -183t185 -71q126 0 193.5 46.5t105.5 100.5l211 -123q-168 -254 -510 -254q-122 0 -221.5 41t-169.5 115.5t-105 172.5t-35 214zM277 1188v229h229v-229h-229z M319 651h504q0 33 -26 82t-79 86t-130 37q-105 0 -176 -57.5t-93 -147.5zM635 1188v229h230v-229h-230z" />
<glyph unicode="&#xec;" horiz-adv-x="496" d="M-57 1458h274l186 -295h-170zM123 0v1036h250v-1036h-250z" />
<glyph unicode="&#xed;" horiz-adv-x="496" d="M94 1163l187 295h274l-291 -295h-170zM123 0v1036h250v-1036h-250z" />
<glyph unicode="&#xee;" horiz-adv-x="496" d="M-84 1163l219 295h229l220 -295h-189l-145 178l-146 -178h-188zM123 0v1036h250v-1036h-250z" />
<glyph unicode="&#xef;" horiz-adv-x="496" d="M-45 1188v229h229v-229h-229zM123 0v1036h250v-1036h-250zM313 1188v229h230v-229h-230z" />
<glyph unicode="&#xf0;" horiz-adv-x="1176" d="M57 518q0 117 35 215.5t104.5 172.5t168 114.5t223.5 40.5q62 0 110 -27h4q-14 21 -89 87.5t-130 103.5l-186 -99l-100 80l180 97q-71 58 -148 92l201 133q100 -53 168 -109l195 103l100 -80l-193 -103q136 -106 227.5 -218.5t141 -252.5t49.5 -311q0 -175 -62 -306 t-183.5 -203.5t-284.5 -72.5q-122 0 -221.5 41t-169.5 115.5t-105 172.5t-35 214zM319 518q0 -82 31 -154t92 -115.5t146 -43.5q63 0 115 25.5t85 68.5t50.5 98.5t17.5 120.5q0 82 -30.5 154.5t-91.5 115.5t-146 43t-146 -43.5t-92 -115t-31 -154.5z" />
<glyph unicode="&#xf1;" d="M123 0v1036h250v-102h4q36 43 83 72t97 42t102 13q357 0 357 -352v-709h-250v633q0 49 -17 92t-55.5 68.5t-99.5 25.5q-62 0 -112 -29t-79.5 -90.5t-29.5 -152.5v-547h-250zM209 1174q8 60 35 115.5t73.5 92.5t104.5 37q60 0 162 -43q16 -5 34 -12.5t29 -11.5t32 -9.5 t36 -5.5q45 0 67.5 22.5t35.5 67.5h114q-8 -59 -35 -115.5t-73.5 -93t-104.5 -36.5q-15 0 -44 5t-45.5 11t-38.5 14.5t-34 12.5q-60 23 -81 31t-50 8q-43 0 -66 -23t-36 -67h-115z" />
<glyph unicode="&#xf2;" horiz-adv-x="1176" d="M57 518q0 117 35 215.5t104.5 172.5t168 114.5t223.5 40.5q162 0 283.5 -71t184 -193.5t62.5 -278.5t-62.5 -278.5t-184 -193.5t-283.5 -71q-122 0 -221.5 41t-169.5 115.5t-105 172.5t-35 214zM283 1458h274l186 -295h-170zM319 518q0 -82 31 -154t92 -115.5t146 -43.5 q63 0 115 25.5t85 68.5t50.5 98.5t17.5 120.5q0 82 -30.5 154.5t-91.5 115.5t-146 43t-146 -43.5t-92 -115t-31 -154.5z" />
<glyph unicode="&#xf3;" horiz-adv-x="1176" d="M57 518q0 117 35 215.5t104.5 172.5t168 114.5t223.5 40.5q162 0 283.5 -71t184 -193.5t62.5 -278.5t-62.5 -278.5t-184 -193.5t-283.5 -71q-122 0 -221.5 41t-169.5 115.5t-105 172.5t-35 214zM319 518q0 -82 31 -154t92 -115.5t146 -43.5q63 0 115 25.5t85 68.5 t50.5 98.5t17.5 120.5q0 82 -30.5 154.5t-91.5 115.5t-146 43t-146 -43.5t-92 -115t-31 -154.5zM434 1163l187 295h274l-291 -295h-170z" />
<glyph unicode="&#xf4;" horiz-adv-x="1176" d="M57 518q0 117 35 215.5t104.5 172.5t168 114.5t223.5 40.5q162 0 283.5 -71t184 -193.5t62.5 -278.5t-62.5 -278.5t-184 -193.5t-283.5 -71q-122 0 -221.5 41t-169.5 115.5t-105 172.5t-35 214zM256 1163l219 295h229l220 -295h-189l-145 178l-146 -178h-188zM319 518 q0 -82 31 -154t92 -115.5t146 -43.5q63 0 115 25.5t85 68.5t50.5 98.5t17.5 120.5q0 82 -30.5 154.5t-91.5 115.5t-146 43t-146 -43.5t-92 -115t-31 -154.5z" />
<glyph unicode="&#xf5;" horiz-adv-x="1176" d="M57 518q0 117 35 215.5t104.5 172.5t168 114.5t223.5 40.5q162 0 283.5 -71t184 -193.5t62.5 -278.5t-62.5 -278.5t-184 -193.5t-283.5 -71q-122 0 -221.5 41t-169.5 115.5t-105 172.5t-35 214zM227 1174q8 60 35 115.5t73.5 92.5t104.5 37q60 0 162 -43q16 -5 34 -12.5 t29 -11.5t32 -9.5t36 -5.5q45 0 67.5 22.5t35.5 67.5h114q-8 -59 -35 -115.5t-73.5 -93t-104.5 -36.5q-15 0 -44 5t-45.5 11t-38.5 14.5t-34 12.5q-60 23 -81 31t-50 8q-43 0 -66 -23t-36 -67h-115zM319 518q0 -82 31 -154t92 -115.5t146 -43.5q63 0 115 25.5t85 68.5 t50.5 98.5t17.5 120.5q0 82 -30.5 154.5t-91.5 115.5t-146 43t-146 -43.5t-92 -115t-31 -154.5z" />
<glyph unicode="&#xf6;" horiz-adv-x="1176" d="M57 518q0 117 35 215.5t104.5 172.5t168 114.5t223.5 40.5q162 0 283.5 -71t184 -193.5t62.5 -278.5t-62.5 -278.5t-184 -193.5t-283.5 -71q-122 0 -221.5 41t-169.5 115.5t-105 172.5t-35 214zM295 1188v229h229v-229h-229zM319 518q0 -82 31 -154t92 -115.5t146 -43.5 q63 0 115 25.5t85 68.5t50.5 98.5t17.5 120.5q0 82 -30.5 154.5t-91.5 115.5t-146 43t-146 -43.5t-92 -115t-31 -154.5zM653 1188v229h230v-229h-230z" />
<glyph unicode="&#xf7;" horiz-adv-x="1229" d="M96 416v205h1037v-205h-1037zM459 102q0 62 46 109t109 47q31 0 59.5 -12t50.5 -34t34 -50t12 -60q0 -63 -47 -109t-109 -46q-63 0 -109 46t-46 109zM459 934q0 62 46 109t109 47q31 0 59.5 -12t50.5 -34t34 -50t12 -60q0 -63 -46.5 -109.5t-109.5 -46.5 q-64 0 -109.5 46.5t-45.5 109.5z" />
<glyph unicode="&#xf8;" horiz-adv-x="1176" d="M12 158l109 88q-64 113 -64 272q0 117 35 215.5t104.5 172.5t168 114.5t223.5 40.5q119 0 216.5 -38.5t162.5 -107.5l104 84l92 -118l-108 -86q63 -117 63 -277q0 -156 -62.5 -278.5t-184 -193.5t-283.5 -71q-239 0 -381 148l-103 -84zM319 518q0 -56 15 -104l434 344 q-70 73 -180 73q-85 0 -146 -43.5t-92 -115t-31 -154.5zM406 281q68 -76 182 -76q63 0 115 25.5t85 68.5t50.5 98.5t17.5 120.5q0 60 -14 109z" />
<glyph unicode="&#xf9;" horiz-adv-x="1176" d="M123 350v686h250v-614q0 -108 45 -156.5t139 -48.5q130 0 188 76t58 186v557h250v-1036h-250v102h-4q-46 -57 -121 -92t-176 -35q-100 0 -184.5 33t-139.5 116.5t-55 225.5zM283 1458h274l186 -295h-170z" />
<glyph unicode="&#xfa;" horiz-adv-x="1176" d="M123 350v686h250v-614q0 -108 45 -156.5t139 -48.5q130 0 188 76t58 186v557h250v-1036h-250v102h-4q-46 -57 -121 -92t-176 -35q-100 0 -184.5 33t-139.5 116.5t-55 225.5zM434 1163l187 295h274l-291 -295h-170z" />
<glyph unicode="&#xfb;" horiz-adv-x="1176" d="M123 350v686h250v-614q0 -108 45 -156.5t139 -48.5q130 0 188 76t58 186v557h250v-1036h-250v102h-4q-46 -57 -121 -92t-176 -35q-100 0 -184.5 33t-139.5 116.5t-55 225.5zM256 1163l219 295h229l220 -295h-189l-145 178l-146 -178h-188z" />
<glyph unicode="&#xfc;" horiz-adv-x="1176" d="M123 350v686h250v-614q0 -108 45 -156.5t139 -48.5q130 0 188 76t58 186v557h250v-1036h-250v102h-4q-46 -57 -121 -92t-176 -35q-100 0 -184.5 33t-139.5 116.5t-55 225.5zM295 1188v229h229v-229h-229zM653 1188v229h230v-229h-230z" />
<glyph unicode="&#xfd;" horiz-adv-x="948" d="M0 1036h268l224 -753h4l194 753h258l-340 -1128q-29 -98 -69 -151.5t-101.5 -77t-152.5 -23.5q-71 0 -150 14v224q45 -9 98 -9q58 0 87.5 19t52.5 69zM319 1163l187 295h274l-291 -295h-170z" />
<glyph unicode="&#xfe;" horiz-adv-x="1176" d="M123 -332v1790h250v-510h4q123 113 295 113q97 0 178.5 -41t142 -116t93 -173.5t32.5 -212.5q0 -148 -57.5 -273t-161 -197.5t-235.5 -72.5q-105 0 -171 31.5t-116 93.5h-4v-432h-250zM365 518q2 -85 24.5 -154t77.5 -114t143 -45q89 0 144 45t77.5 114t24.5 154 q-2 132 -59 222.5t-187 90.5q-129 0 -186 -90.5t-59 -222.5z" />
<glyph unicode="&#xff;" horiz-adv-x="948" d="M0 1036h268l224 -753h4l194 753h258l-340 -1128q-29 -98 -69 -151.5t-101.5 -77t-152.5 -23.5q-71 0 -150 14v224q45 -9 98 -9q58 0 87.5 19t52.5 69zM180 1188v229h229v-229h-229zM538 1188v229h230v-229h-230z" />
<glyph unicode="&#x152;" horiz-adv-x="2048" d="M63 729q0 145 47 283t132.5 246.5t209.5 172.5t271 64q90 0 157.5 -19t135.5 -65v47h958v-254h-684v-332h608v-241h-608v-377h725v-254h-999v57q-55 -43 -134 -68.5t-159 -25.5q-158 0 -282 63.5t-208.5 173t-127 246.5t-42.5 283zM350 729q0 -135 44 -251t136 -188.5 t232 -72.5q101 0 177.5 31.5t76.5 124.5v678q0 46 -34.5 90.5t-94 72t-125.5 27.5q-140 0 -232 -72.5t-136 -188.5t-44 -251z" />
<glyph unicode="&#x153;" horiz-adv-x="1858" d="M57 518q0 156 62.5 279t181 193.5t274.5 70.5q145 0 226 -43.5t135 -104.5q41 41 87.5 72t119.5 53.5t168 22.5q158 0 265.5 -72t159.5 -208t52 -322h-707q3 -113 68.5 -183.5t161.5 -70.5q165 0 252 141l211 -123q-54 -69 -125 -124t-158.5 -89t-179.5 -35 q-106 0 -205 47t-160 138q-110 -185 -371 -185q-156 0 -274.5 70.5t-181 193.5t-62.5 279zM319 518q0 -81 30.5 -153.5t89 -116t136.5 -43.5q79 0 137.5 43t88.5 116t30 154t-30 154t-88.5 116t-137.5 43q-78 0 -136.5 -43.5t-89 -116t-30.5 -153.5zM1081 651h445 q-6 85 -64.5 145t-150.5 60q-63 0 -114.5 -28t-82 -75.5t-33.5 -101.5z" />
<glyph unicode="&#x178;" horiz-adv-x="1290" d="M23 1458h305l317 -602l318 602h305l-486 -889v-569h-274v569zM352 1573v229h229v-229h-229zM710 1573v229h230v-229h-230z" />
<glyph unicode="&#x2c6;" horiz-adv-x="494" d="M-86 1163l219 295h229l220 -295h-189l-145 178l-146 -178h-188z" />
<glyph unicode="&#x2dc;" horiz-adv-x="494" d="M-115 1174q8 60 35 115.5t73.5 92.5t104.5 37q60 0 162 -43q16 -5 34 -12.5t29 -11.5t32 -9.5t36 -5.5q45 0 67.5 22.5t35.5 67.5h114q-8 -59 -35 -115.5t-73.5 -93t-104.5 -36.5q-15 0 -44 5t-45.5 11t-38.5 14.5t-34 12.5q-60 23 -81 31t-50 8q-43 0 -66 -23t-36 -67 h-115z" />
<glyph unicode="&#x2000;" horiz-adv-x="965" />
<glyph unicode="&#x2001;" horiz-adv-x="1931" />
<glyph unicode="&#x2002;" horiz-adv-x="965" />
<glyph unicode="&#x2003;" horiz-adv-x="1931" />
<glyph unicode="&#x2004;" horiz-adv-x="643" />
<glyph unicode="&#x2005;" horiz-adv-x="482" />
<glyph unicode="&#x2006;" horiz-adv-x="321" />
<glyph unicode="&#x2007;" horiz-adv-x="321" />
<glyph unicode="&#x2008;" horiz-adv-x="241" />
<glyph unicode="&#x2009;" horiz-adv-x="386" />
<glyph unicode="&#x200a;" horiz-adv-x="107" />
<glyph unicode="&#x2010;" horiz-adv-x="682" d="M86 483v230h510v-230h-510z" />
<glyph unicode="&#x2011;" horiz-adv-x="682" d="M86 483v230h510v-230h-510z" />
<glyph unicode="&#x2012;" horiz-adv-x="682" d="M86 483v230h510v-230h-510z" />
<glyph unicode="&#x2013;" horiz-adv-x="1024" d="M0 483v230h1024v-230h-1024z" />
<glyph unicode="&#x2014;" horiz-adv-x="2048" d="M0 483v230h2048v-230h-2048z" />
<glyph unicode="&#x2018;" horiz-adv-x="569" d="M147 889v338q0 106 73 161t188 70v-125q-105 -11 -105 -98v-64h119v-282h-275z" />
<glyph unicode="&#x2019;" horiz-adv-x="569" d="M147 1176v282h275v-338q0 -70 -35 -119.5t-93.5 -75.5t-131.5 -36v125q104 11 104 98v64h-119z" />
<glyph unicode="&#x201a;" horiz-adv-x="569" d="M147 0v283h275v-338q0 -195 -260 -232v125q104 11 104 99v63h-119z" />
<glyph unicode="&#x201c;" horiz-adv-x="797" d="M84 889v338q0 106 73 161t187 70v-125q-104 -11 -104 -98v-64h118v-282h-274zM438 889v338q0 106 73 161t187 70v-125q-104 -11 -104 -98v-64h119v-282h-275z" />
<glyph unicode="&#x201d;" horiz-adv-x="797" d="M84 1176v282h274v-338q0 -70 -35 -119.5t-93.5 -75.5t-131.5 -36v125q105 11 105 98v64h-119zM438 1176v282h275v-338q0 -70 -35 -119.5t-93.5 -75.5t-131.5 -36v125q104 11 104 98v64h-119z" />
<glyph unicode="&#x201e;" horiz-adv-x="797" d="M84 0v283h274v-338q0 -195 -260 -232v125q105 11 105 99v63h-119zM438 0v283h275v-338q0 -195 -260 -232v125q104 11 104 99v63h-119z" />
<glyph unicode="&#x2022;" horiz-adv-x="1024" d="M147 729q0 75 27.5 140t78.5 116.5t117.5 80t141.5 28.5t140.5 -28t117 -79.5t79.5 -117t28 -140.5q0 -74 -27.5 -139t-80 -117.5t-117.5 -80t-140 -27.5q-98 0 -181.5 48.5t-133.5 132.5t-50 183z" />
<glyph unicode="&#x2026;" horiz-adv-x="2048" d="M205 0v283h274v-283h-274zM887 0v283h274v-283h-274zM1569 0v283h274v-283h-274z" />
<glyph unicode="&#x202f;" horiz-adv-x="386" />
<glyph unicode="&#x2039;" horiz-adv-x="569" d="M137 449v299l295 231v-238l-172 -143l172 -143v-238z" />
<glyph unicode="&#x203a;" horiz-adv-x="569" d="M137 217v238l172 143l-172 143v238l295 -231v-299z" />
<glyph unicode="&#x205f;" horiz-adv-x="482" />
<glyph unicode="&#x2122;" horiz-adv-x="2028" d="M63 1303v155h680v-155h-243v-689h-193v689h-244zM866 614v844h273l217 -577l213 577h272v-844h-180v639h-4l-234 -639h-139l-233 639h-4v-639h-181z" />
<glyph unicode="&#x25fc;" horiz-adv-x="1035" d="M0 0v1035h1035v-1035h-1035z" />
</font>
</defs>
</svg>
